<svg version="1.2" baseProfile="tiny-ps" xmlns="http://www.w3.org/2000/svg" viewBox="0 0 200 70" width="200" height="70">
	<title>Logo</title>
	<style>
		tspan { white-space:pre }
	</style>
	<path id="Tokyo " fill="#ffffff" aria-label="Tokyo"  d="M19.74 34L13.72 34L13.72 9.71L10.15 9.71L10.15 3.93L23.31 3.93L23.31 9.71L19.74 9.71L19.74 34ZM31.57 34.28Q23.91 34.28 23.91 26.34L23.91 16.04Q23.91 12.4 25.93 10.27Q28 8.1 31.57 8.1Q35.14 8.1 37.17 10.27Q39.23 12.4 39.23 16.04L39.23 26.34Q39.23 34.28 31.57 34.28ZM31.57 29.55Q32.3 29.55 32.66 29.03Q33 28.5 33 27.59L33 15.06Q33 12.82 31.57 12.82Q30.13 12.82 30.13 15.06L30.13 27.59Q30.13 28.5 30.48 29.03Q30.84 29.55 31.57 29.55ZM47.57 34L41.51 34L41.51 3.76L47.57 3.76L47.57 17.2L50.51 8.38L56.84 8.38L52.99 19.51L57.89 34L51.38 34L47.57 21.92L47.57 34ZM58.21 38.27L58.21 34.38L61.15 34.38Q61.78 34.38 61.78 33.86Q61.78 33.62 61.74 33.48L57.75 8.38L63.6 8.38L64.75 20.88L65.31 27.24L65.98 20.88L67.34 8.38L73.22 8.38L68.46 35.33Q68.22 36.84 67.45 37.57Q66.71 38.27 65.1 38.27L58.21 38.27ZM82.29 34.28Q74.62 34.28 74.62 26.34L74.62 16.04Q74.62 12.4 76.65 10.27Q78.72 8.1 82.29 8.1Q85.86 8.1 87.89 10.27Q89.95 12.4 89.95 16.04L89.95 26.34Q89.95 34.28 82.29 34.28ZM82.29 29.55Q83.02 29.55 83.37 29.03Q83.72 28.5 83.72 27.59L83.72 15.06Q83.72 12.82 82.29 12.82Q80.85 12.82 80.85 15.06L80.85 27.59Q80.85 28.5 81.2 29.03Q81.55 29.55 82.29 29.55Z" />
	<path id="Revengers " fill="#ffffff" aria-label="Revengers"  d="M10.33 65L10.33 34.94L19.57 34.94Q21.77 34.94 22.97 35.95Q24.19 36.93 24.61 38.75Q25.03 40.53 25.03 43.33Q25.03 45.89 24.37 47.33Q23.7 48.76 22.05 49.32Q23.42 49.6 24.02 50.69Q24.65 51.77 24.65 53.63L24.58 65L18.7 65L18.7 53.24Q18.7 51.98 18.2 51.63Q17.72 51.28 16.42 51.28L16.42 65L10.33 65ZM16.46 46.06L17.89 46.06Q19.15 46.06 19.15 43.33Q19.15 42.14 19.05 41.55Q18.94 40.95 18.66 40.74Q18.38 40.5 17.86 40.5L16.46 40.5L16.46 46.06ZM34.09 65.28Q30.14 65.28 28.43 63.11Q26.71 60.94 26.71 56.63L26.71 46.34Q26.71 42.81 28.74 40.95Q30.77 39.1 34.41 39.1Q41.8 39.1 41.8 46.34L41.8 48.2Q41.8 51 41.73 52.75L32.84 52.75L32.84 57.72Q32.84 59.05 33.12 59.82Q33.4 60.55 34.3 60.55Q35.01 60.55 35.29 60.13Q35.6 59.72 35.64 59.19Q35.7 58.63 35.7 57.58L35.7 55.09L41.8 55.09L41.8 56.56Q41.8 61.05 40.05 63.18Q38.33 65.28 34.09 65.28ZM32.8 49.7L35.7 49.7L35.7 46.41Q35.7 43.65 34.34 43.65Q32.8 43.65 32.8 46.41L32.8 49.7ZM54.36 65L47.26 65L43.16 39.38L49.29 39.38L50.55 52.33L50.76 56.49L51 52.3L52.4 39.38L58.53 39.38L54.36 65ZM67.31 65.28Q63.36 65.28 61.64 63.11Q59.93 60.94 59.93 56.63L59.93 46.34Q59.93 42.81 61.96 40.95Q63.99 39.1 67.63 39.1Q75.01 39.1 75.01 46.34L75.01 48.2Q75.01 51 74.94 52.75L66.05 52.75L66.05 57.72Q66.05 59.05 66.33 59.82Q66.61 60.55 67.52 60.55Q68.22 60.55 68.5 60.13Q68.82 59.72 68.85 59.19Q68.92 58.63 68.92 57.58L68.92 55.09L75.01 55.09L75.01 56.56Q75.01 61.05 73.26 63.18Q71.55 65.28 67.31 65.28ZM66.02 49.7L68.92 49.7L68.92 46.41Q68.92 43.65 67.56 43.65Q66.02 43.65 66.02 46.41L66.02 49.7ZM77.22 65L77.22 39.38L83.34 39.38L83.34 42.63Q83.73 41.06 84.67 40.08Q85.62 39.1 87.19 39.1Q89.78 39.1 91.01 40.71Q92.27 42.28 92.27 45.22L92.27 65L86.25 65L86.25 45.85Q86.25 45.02 85.9 44.42Q85.58 43.83 84.88 43.83Q83.94 43.83 83.62 44.7Q83.34 45.54 83.34 46.97L83.34 65L77.22 65ZM101.58 68.75Q98.85 68.75 97.27 68.33Q95.73 67.87 94.23 66.64L96.33 63.11Q98.57 64.44 100.77 64.44Q102.21 64.44 102.94 63.53Q103.68 62.62 103.68 61.05L103.68 59.64Q102.94 62.27 99.79 62.27Q97.17 62.27 95.91 60.48Q94.68 58.7 94.68 55.73L94.68 46.1Q94.68 42.7 95.8 40.92Q96.96 39.1 99.79 39.1Q101.44 39.1 102.38 39.94Q103.36 40.74 103.68 42.25L103.68 39.38L109.94 39.38L109.94 60.66Q109.94 64.97 107.95 66.86Q105.95 68.75 101.58 68.75ZM102.24 57.65Q103.68 57.65 103.68 55.06L103.68 45.92Q103.68 45.16 103.26 44.45Q102.84 43.75 102.21 43.75Q101.4 43.75 101.12 44.35Q100.84 44.91 100.84 45.92L100.84 55.06Q100.84 56.22 101.12 56.95Q101.4 57.65 102.24 57.65ZM119.5 65.28Q115.54 65.28 113.83 63.11Q112.11 60.94 112.11 56.63L112.11 46.34Q112.11 42.81 114.14 40.95Q116.17 39.1 119.81 39.1Q127.2 39.1 127.2 46.34L127.2 48.2Q127.2 51 127.13 52.75L118.24 52.75L118.24 57.72Q118.24 59.05 118.52 59.82Q118.8 60.55 119.71 60.55Q120.41 60.55 120.69 60.13Q121 59.72 121.04 59.19Q121.11 58.63 121.11 57.58L121.11 55.09L127.2 55.09L127.2 56.56Q127.2 61.05 125.45 63.18Q123.73 65.28 119.5 65.28ZM118.2 49.7L121.11 49.7L121.11 46.41Q121.11 43.65 119.74 43.65Q118.2 43.65 118.2 46.41L118.2 49.7ZM129.4 65L129.4 39.38L135.53 39.38L135.53 42.21Q135.98 40.71 137.1 39.91Q138.26 39.06 139.94 39.06L139.94 44.17Q138.64 44.17 137.06 44.56Q135.53 44.91 135.53 45.4L135.53 65L129.4 65ZM148.47 65.28Q140.88 65.28 140.88 57.58L140.91 55.55L147.04 55.55L147.08 58.56Q147.08 59.47 147.43 59.96Q147.78 60.41 148.58 60.41Q149.81 60.41 149.81 58.42Q149.81 56.95 149.21 56.11Q148.65 55.27 147.39 54.33L144.13 51.8Q142.46 50.51 141.72 49.14Q140.99 47.74 140.99 45.22Q140.99 43.27 142 41.9Q143.05 40.5 144.77 39.8Q146.48 39.1 148.58 39.1Q156.03 39.1 156.03 46.52L156.03 47.01L149.7 47.01L149.7 46.03Q149.7 45.12 149.38 44.49Q149.11 43.83 148.41 43.83Q147.78 43.83 147.43 44.21Q147.11 44.56 147.11 45.19Q147.11 46.59 148.19 47.36L151.97 50.13Q154 51.63 155.09 53.41Q156.18 55.16 156.18 57.86Q156.18 61.43 154.15 63.35Q152.12 65.28 148.47 65.28Z" />
</svg>